<svg width="64" height="64" viewBox="0 0 64 64" fill="none" xmlns="http://www.w3.org/2000/svg">
<rect width="64" height="64" fill="#067F30"/>
<g filter="url(#filter0_d_17_4)">
<path d="M25.2754 15.4V47.08H31.5154V49H10.8754V47.08H18.0754V21.304C15.0994 22.552 12.0274 23.176 8.85938 23.176V21.256C11.8034 21.256 14.5394 20.712 17.0674 19.624C19.6274 18.536 21.6594 17.128 23.1634 15.4H25.2754ZM47.916 15.4V47.08H54.156V49H33.516V47.08H40.716V21.304C37.74 22.552 34.668 23.176 31.5 23.176V21.256C34.444 21.256 37.18 20.712 39.708 19.624C42.268 18.536 44.3 17.128 45.804 15.4H47.916Z" fill="white"/>
</g>
<defs>
<filter id="filter0_d_17_4" x="4.85938" y="15.4" width="53.2966" height="41.6" filterUnits="userSpaceOnUse" color-interpolation-filters="sRGB">
<feFlood flood-opacity="0" result="BackgroundImageFix"/>
<feColorMatrix in="SourceAlpha" type="matrix" values="0 0 0 0 0 0 0 0 0 0 0 0 0 0 0 0 0 0 127 0" result="hardAlpha"/>
<feOffset dy="4"/>
<feGaussianBlur stdDeviation="2"/>
<feComposite in2="hardAlpha" operator="out"/>
<feColorMatrix type="matrix" values="0 0 0 0 0 0 0 0 0 0 0 0 0 0 0 0 0 0 0.25 0"/>
<feBlend mode="normal" in2="BackgroundImageFix" result="effect1_dropShadow_17_4"/>
<feBlend mode="normal" in="SourceGraphic" in2="effect1_dropShadow_17_4" result="shape"/>
</filter>
</defs>
</svg>
